<svg xmlns="http://www.w3.org/2000/svg" viewBox="0 0 20 20"><defs><style>.cls-1{fill:#020518;stroke:#7f8bc2;stroke-miterlimit:10;}.cls-2{fill:#fff;}</style></defs><title>Checked</title><g id="Layer_2" data-name="Layer 2"><g id="Layer_1-2" data-name="Layer 1"><rect class="cls-1" x="0.5" y="0.5" width="19" height="19"/><path class="cls-2" d="M16.83,6.62,15.68,5.48a.75.75,0,0,0-.57-.24.78.78,0,0,0-.57.24L9,11,6.57,8.52A.78.78,0,0,0,6,8.28a.75.75,0,0,0-.57.24L4.28,9.66a.79.79,0,0,0-.23.57.81.81,0,0,0,.23.57l3,3L8.47,15a.75.75,0,0,0,.57.24A.78.78,0,0,0,9.61,15l1.14-1.14,6.08-6.08a.82.82,0,0,0,0-1.14Z"/></g></g></svg>