<svg xmlns="http://www.w3.org/2000/svg" viewBox="0 0 8.47 8.47"><defs><style>.cls-1{fill:#595d63}</style></defs><g id="Слой_2" data-name="Слой 2"><g id="Слой_1-2" data-name="Слой 1"><path class="cls-1" d="M4.48 1.1a.25.25 0 1 1-.48 0 .25.25 0 1 1 .49 0z"/><path class="cls-1" d="M4.24 8.47a4.24 4.24 0 1 1 4.23-4.25 4.24 4.24 0 0 1-4.23 4.25zm0-8a3.7 3.7 0 1 0 3.7 3.7A3.7 3.7 0 0 0 4.24.52z"/><path class="cls-1" d="M4.48 7.35a.25.25 0 1 1-.24-.25.25.25 0 0 1 .24.25zM7.6 4.22A.25.25 0 1 1 7.35 4a.25.25 0 0 1 .25.25zM1.37 4.22A.25.25 0 1 1 1.12 4a.25.25 0 0 1 .25.25zM4.15 4.77A.29.29 0 0 1 4 4.7l-.9-.89a.26.26 0 0 1 0-.38.27.27 0 0 1 .37 0l.68.68 1.56-1.57a.27.27 0 1 1 .38.38L4.34 4.68a.28.28 0 0 1-.19.09z"/></g></g></svg>