<svg xmlns="http://www.w3.org/2000/svg" viewBox="0 0 37.1 40.29"><defs><style>.cls-1{fill:#fff;}.cls-2{fill:#39b54a;}.cls-3{fill:#ed1c29;}.cls-4{fill:#ede937;}.cls-5{fill:#27aae1;}</style></defs><title>BCTIcon</title><g id="Layer_2" data-name="Layer 2"><g id="Layer_1-2" data-name="Layer 1"><rect class="cls-1" x="5.07" y="37.97" width="28.41" height="2.32"/><rect class="cls-2" x="2.95" y="27.43" width="30.89" height="4.95"/><rect class="cls-3" x="2.95" y="19.28" width="25.41" height="4.95"/><rect class="cls-4" x="2.95" y="11.14" width="28.84" height="4.95"/><polygon class="cls-5" points="2.93 2.99 2.93 7.92 34.19 7.92 34.17 2.93 2.93 2.99"/><path class="cls-1" d="M35.63,0H1.47A1.47,1.47,0,0,0,0,1.47V33.85a1.47,1.47,0,0,0,1.47,1.48H35.63a1.47,1.47,0,0,0,1.47-1.48V1.47A1.47,1.47,0,0,0,35.63,0ZM2.93,11.12H31.77v4.94H2.93Zm0,8.14H28.34v4.95H3V19.28m0,8.13H33.81v4.94H3V27.43M34.19,7.92H2.93V3H15l19.15-.06"/></g></g></svg>