<svg xmlns="http://www.w3.org/2000/svg" viewBox="0 0 24.46 28.45"><g data-name="Слой 2"><path d="M10 28.45a9.54 9.54 0 0 1-6.77-2.8l-.38-.38a9.57 9.57 0 0 1 0-13.53l9.69-9.69a7 7 0 0 1 12 5 7 7 0 0 1-2.05 5l-9.29 9.29a3.86 3.86 0 0 1-5.34 0l-.57-.57a3.8 3.8 0 0 1 0-5.35l7-7 1.42 1.41-7 7a1.78 1.78 0 0 0 0 2.51l.57.57a1.81 1.81 0 0 0 2.52 0l9.2-9.36a5 5 0 0 0 0-7.09 5 5 0 0 0-7.08 0l-9.7 9.69a7.57 7.57 0 0 0 0 10.71l.38.38a7.57 7.57 0 0 0 10.7 0l7.44-7.44 1.42 1.41-7.44 7.44a9.54 9.54 0 0 1-6.72 2.8z" fill="#24425B" data-name="Слой 1"/></g></svg>
