<svg xmlns="http://www.w3.org/2000/svg" viewBox="0 0 32.38 31.72"><defs><style>.cls-1{fill:#24425B}</style></defs><g id="Слой_2" data-name="Слой 2"><g id="Слой_1-2" data-name="Слой 1"><path class="cls-1" d="M11.71 31.72a8.87 8.87 0 0 1-8.54-6.6L.3 14.22A8.85 8.85 0 0 1 6.6 3.4L18.4.29A8.88 8.88 0 0 1 29.22 6.6l2.87 10.9a8.86 8.86 0 0 1-6.31 10.81L14 31.42a8.79 8.79 0 0 1-2.29.3zM20.65 2a6.56 6.56 0 0 0-1.74.23l-11.8 3.1a6.87 6.87 0 0 0-4.88 8.38l2.87 10.9a6.87 6.87 0 0 0 8.37 4.88l11.8-3.11A6.84 6.84 0 0 0 30.15 18L27.28 7.11A6.87 6.87 0 0 0 20.65 2z"/><path class="cls-1" d="M12 22.28a13.14 13.14 0 0 1-2.31-.19l.43-1.95a12.13 12.13 0 0 0 12.91-6.51l1.75 1A14.15 14.15 0 0 1 12 22.28z"/><path class="cls-1" d="M20.91 23.18a2.46 2.46 0 0 1-.6-.07c-1.92-.4-2.85-2.68-2.94-2.94l1.86-.71c.2.49.82 1.56 1.5 1.7.52.11 1.1-.35 1.51-.76.62-.61.91-1.16.82-1.53-.12-.52-.95-.95-1.33-1.08l.62-1.9c.23.08 2.24.78 2.66 2.51.26 1.1-.19 2.25-1.36 3.42a4 4 0 0 1-2.74 1.36z"/><circle class="cls-1" cx="10.95" cy="14.11" r="2"/><circle class="cls-1" cx="18.45" cy="10.61" r="2"/></g></g></svg>
