<svg xmlns="http://www.w3.org/2000/svg" viewBox="0 0 12.05 12.05"><g data-name="Слой 2"><g data-name="Слой 1"><rect x=".25" y=".25" width="11.55" height="11.55" rx="2.83" ry="2.83" fill="none" stroke="#e3e3e3" stroke-miterlimit="10" stroke-width=".5"/><path d="M9.67 4L5.08 8.8a.3.3 0 0 1-.2.08.23.23 0 0 1-.2-.08L2.44 6.38h-.06a.32.32 0 0 1-.09-.2.28.28 0 0 1 .09-.2l.4-.41a.28.28 0 0 1 .4 0l1.58 1.7a.15.15 0 0 0 .2 0l3.85-4a.28.28 0 0 1 .4 0l.4.41a.23.23 0 0 1 .06.32z" fill="#bebfbf"/></g></g></svg>