<svg xmlns="http://www.w3.org/2000/svg" viewBox="0 0 12.66 11.28"><defs><style>.cls-1{fill:#01b067}</style></defs><g id="Слой_2" data-name="Слой 2"><g id="Слой_1-2" data-name="Слой 1"><path class="cls-1" d="M.27 4h9.17v1.64a.29.29 0 0 0 .08.19.27.27 0 0 0 .19.08.26.26 0 0 0 .19-.08l2.69-2.68a.27.27 0 0 0 .07-.2.26.26 0 0 0-.07-.19L9.91.08a.34.34 0 0 0-.2-.08.24.24 0 0 0-.19.08.22.22 0 0 0-.08.19v1.61H.27a.27.27 0 0 0-.27.27v1.61A.29.29 0 0 0 .08 4a.27.27 0 0 0 .19 0zM12.39 7.25H3.22V5.64a.27.27 0 0 0-.08-.19.26.26 0 0 0-.14-.08.22.22 0 0 0-.19.08L.08 8.13a.27.27 0 0 0 0 .38l2.67 2.68a.32.32 0 0 0 .2.09.26.26 0 0 0 .19-.08.25.25 0 0 0 .08-.2V9.4h9.17a.26.26 0 0 0 .19-.08.29.29 0 0 0 .08-.19V7.52a.27.27 0 0 0-.27-.27z"/></g></g></svg>
