<svg xmlns="http://www.w3.org/2000/svg" viewBox="0 0 44.07 44.07"><defs><style>.cls-1{fill:#4ca3e2;}.cls-2{fill:#fff;}</style></defs><title>TelegramIcon</title><g id="Layer_2" data-name="Layer 2"><g id="Layer_1-2" data-name="Layer 1"><circle class="cls-1" cx="22.03" cy="22.03" r="22.03"/><path class="cls-2" d="M7.93,21.44l6.18,2.3,2.39,7.7a.73.73,0,0,0,1.16.35L21.11,29a1,1,0,0,1,1.25,0l6.22,4.52A.73.73,0,0,0,29.72,33l4.55-21.91a.73.73,0,0,0-1-.83L7.92,20.07A.73.73,0,0,0,7.93,21.44Zm8.19,1.08L28.2,15.07a.22.22,0,0,1,.26.34l-10,9.27a2.08,2.08,0,0,0-.64,1.23l-.34,2.52a.31.31,0,0,1-.61.05l-1.3-4.6A1.21,1.21,0,0,1,16.12,22.52Z"/></g></g></svg>