<svg xmlns="http://www.w3.org/2000/svg" viewBox="0 0 13.07 14.74"><defs><style>.cls-1{fill:#575c66}</style></defs><g id="Слой_2" data-name="Слой 2"><g id="Слой_1-2" data-name="Слой 1"><path class="cls-1" d="M8.19 13.1a1.64 1.64 0 0 1-3.28 0zM6.55 0zm0 1.64V0h.11v1.64zM3.26 5l-.09 3.6-.8 1.22h8.28l-.82-1.2V4.88a3.24 3.24 0 0 0-3.21-3.24A3.47 3.47 0 0 0 3.26 5zm3.3-3.35h.11V0a4.89 4.89 0 0 1 4.81 4.88V8.1l1.36 2c.5.75.18 1.35-.72 1.35H1c-.9 0-1.24-.61-.74-1.37l1.31-2 .08-3.14A5.12 5.12 0 0 1 6.55 0z"/></g></g></svg>
