<svg xmlns="http://www.w3.org/2000/svg" viewBox="0 0 16.12 12.13"><defs><style>.cls-1{fill:#575c66}</style></defs><g id="Слой_2" data-name="Слой 2"><g id="Слой_1-2" data-name="Слой 1"><path class="cls-1" d="M10 10.25a1.89 1.89 0 1 1-1.9-1.89 1.88 1.88 0 0 1 1.9 1.89zM12.6 5.71l-.09-.08-.08-.08a6.13 6.13 0 0 0-8.48.2l-.66.65A1.18 1.18 0 0 0 4.91 8l.66-.65a3.79 3.79 0 0 1 5.36 0l.46.45a1.17 1.17 0 0 0 1.66 0 1.17 1.17 0 0 0 0-1.65z"/><path class="cls-1" d="M15.8 3.38L15.41 3l-.31-.31-.18-.15a10.27 10.27 0 0 0-13.85.32h-.05l-.71.71a1.08 1.08 0 0 0 1.53 1.56l.7-.7a8.1 8.1 0 0 1 11.17-.06l.55.56a1.08 1.08 0 0 0 1.54-1.55z"/></g></g></svg>
