<svg xmlns="http://www.w3.org/2000/svg" viewBox="0 0 34.62 34.62"><defs><style>.cls-1{fill:#e7eced;}.cls-2{fill:#454c73;}</style></defs><title>Asset 13</title><g id="Layer_2" data-name="Layer 2"><g id="Layer_1-2" data-name="Layer 1"><path class="cls-1" d="M12.16,27.14,7,30a4.81,4.81,0,0,0-.83.59,17.29,17.29,0,0,0,22.23.05,4.62,4.62,0,0,0-.91-.6L22,27.23a2.11,2.11,0,0,1-1.17-1.89V23.17a5.24,5.24,0,0,0,.52-.67A12.44,12.44,0,0,0,23,19a1.75,1.75,0,0,0,1.24-1.66V15.07a1.75,1.75,0,0,0-.58-1.29V10.43s.69-5.2-6.37-5.2-6.37,5.2-6.37,5.2v3.35a1.75,1.75,0,0,0-.58,1.29v2.31a1.74,1.74,0,0,0,.8,1.46,11.45,11.45,0,0,0,2.1,4.33v2.12a2.13,2.13,0,0,1-1.1,1.85Z"/><path class="cls-2" d="M17.6,0A17.3,17.3,0,0,0,6.17,30.54,4.33,4.33,0,0,1,7,30l5.17-2.82a2.12,2.12,0,0,0,1.09-1.85V23.17a11.51,11.51,0,0,1-2.09-4.33,1.74,1.74,0,0,1-.8-1.46V15.07a1.75,1.75,0,0,1,.58-1.29V10.43s-.69-5.21,6.37-5.21,6.37,5.21,6.37,5.21v3.35a1.74,1.74,0,0,1,.57,1.29v2.31A1.74,1.74,0,0,1,23,19,12.44,12.44,0,0,1,21.3,22.5a7.57,7.57,0,0,1-.52.67v2.17A2.11,2.11,0,0,0,22,27.23L27.48,30a4.62,4.62,0,0,1,.91.6A17.31,17.31,0,0,0,17.6,0Z"/></g></g></svg>