<svg xmlns="http://www.w3.org/2000/svg" viewBox="0 0 27.42 27.4"><defs><style>.cls-1{fill:#454c73;}</style></defs><title>Asset 3</title><g id="Layer_2" data-name="Layer 2"><g id="Layer_1-2" data-name="Layer 1"><g id="NgNACB"><path class="cls-1" d="M0,27.4V0H2.28V25.11H27.42v2.3Z"/><path class="cls-1" d="M27.42,22.85a5,5,0,0,1-2.11-.53,4.49,4.49,0,0,1-2.17-2.48q-2-5.35-3.92-10.72a3.42,3.42,0,0,0-6.45,0L8.84,19.89a4.57,4.57,0,0,1-4.1,2.94.46.46,0,0,1-.16,0V20.57a5.21,5.21,0,0,0,.57-.1A2.26,2.26,0,0,0,6.74,19C8,15.63,9.18,12.3,10.39,9a7.29,7.29,0,0,1,1.42-2.57,5.71,5.71,0,0,1,9.55,2q2,5.31,3.88,10.62a2.29,2.29,0,0,0,2.18,1.6Z"/><path class="cls-1" d="M4.58,0H11.4V2.26H4.58Z"/><path class="cls-1" d="M9.12,6.83H4.58V4.57H9.12Z"/></g></g></g></svg>