<svg xmlns="http://www.w3.org/2000/svg" viewBox="0 0 28.47 26.08"><defs><style>.cls-1{fill:#454c73;}</style></defs><title>Asset 8</title><g id="Layer_2" data-name="Layer 2"><g id="Layer_1-2" data-name="Layer 1"><g id="_0kp1Q6" data-name="0kp1Q6"><path class="cls-1" d="M0,14.71c.08-.21.15-.44.25-.64A2.36,2.36,0,0,1,1.6,12.9C3,12.45,4.36,12,5.73,11.52a.37.37,0,0,1,.4.08,5,5,0,0,0,2.39,1.22c.19,0,.23.14.26.3.15.89.28,1.79.45,2.68.08.42.23.82.36,1.26l-.25.09c-1.17.39-2.34.77-3.5,1.17-.35.13-.68.33-1,.49a1.68,1.68,0,0,1-.57.16H0Z"/><path class="cls-1" d="M23.7,26.08H4.76c0-.1,0-.19,0-.28V22.35A2.35,2.35,0,0,1,6.44,20c1.35-.45,2.69-.89,4-1.35a.39.39,0,0,1,.42.09,4.87,4.87,0,0,0,6.68,0,.4.4,0,0,1,.45-.08L22.1,20a2.3,2.3,0,0,1,1.62,2.14c0,1.27,0,2.54,0,3.8A.83.83,0,0,1,23.7,26.08Z"/><path class="cls-1" d="M14.28,7.11a3.8,3.8,0,0,1,3.6,2.32,3.91,3.91,0,0,1,.24,2.29c-.22,1.32-.41,2.63-.67,3.94a3.38,3.38,0,0,1-3.61,2.6A3.47,3.47,0,0,1,11,15.47c-.23-1.33-.46-2.66-.65-4a3.77,3.77,0,0,1,3.51-4.33Z"/><path class="cls-1" d="M8.5,11A3.47,3.47,0,0,1,6.19,8.14C6,7,5.78,5.75,5.6,4.56A3.84,3.84,0,0,1,10.15.05a3.81,3.81,0,0,1,3.23,4.6c-.08.51-.21.79-.79.94a5.4,5.4,0,0,0-4.08,5.17A2.27,2.27,0,0,1,8.5,11Z"/><path class="cls-1" d="M16.33,5.7a3.78,3.78,0,0,1,2-.91A4,4,0,0,1,22,6a3.59,3.59,0,0,1,.91,3c-.21,1.51-.46,3-.77,4.51a3.28,3.28,0,0,1-2.88,2.3c.12-.73.25-1.45.36-2.18A19.21,19.21,0,0,0,19.94,11a5.33,5.33,0,0,0-3.33-5.15Z"/><path class="cls-1" d="M28.47,23.71h-3c0-.48,0-.95,0-1.42a4.17,4.17,0,0,0-.62-2.21,4.12,4.12,0,0,0-2.22-1.76l-2.41-.8.21-.09a5,5,0,0,0,1.86-1.08.37.37,0,0,1,.42-.08l4.08,1.36a2.35,2.35,0,0,1,1.65,2.29v3.79Z"/></g></g></g></svg>