<svg xmlns="http://www.w3.org/2000/svg" viewBox="0 0 27.29 27.29"><defs><style>.cls-1{fill:#454c73;}</style></defs><title>Asset 5</title><g id="Layer_2" data-name="Layer 2"><g id="Layer_1-2" data-name="Layer 1"><g id="L6MxbU"><path class="cls-1" d="M0,0H2.27V25h25v2.29H0Z"/><path class="cls-1" d="M7.94,5.6,21.63,19.29l4-4,.56.55c.31.31.63.62.93.94a.42.42,0,0,1,.12.28c0,1.85,0,3.71,0,5.56a.89.89,0,0,1,0,.15H4.54v-.3c0-4.29,0-8.58,0-12.87a1,1,0,0,1,.32-.79c1-.94,1.93-1.91,2.88-2.87A2.57,2.57,0,0,0,7.94,5.6Z"/><path class="cls-1" d="M13.06,7.46l2.87-2.87,5.62,5.63L25.7,6.07c.19.22.33.42.49.59l1,1a.42.42,0,0,1,.12.28c0,1.85,0,3.71,0,5.56a.83.83,0,0,1,0,.13l-1.53-1.56-4,4.05Z"/></g></g></g></svg>