<svg xmlns="http://www.w3.org/2000/svg" viewBox="0 0 27.42 27.4"><defs><style>.cls-1{fill:#454c73;}</style></defs><title>Asset 11</title><g id="Layer_2" data-name="Layer 2"><g id="Layer_1-2" data-name="Layer 1"><g id="bIl7bt"><path class="cls-1" d="M27.42,25.1v2.3H0V0H2.3V9.11l9.12-6.84.25.18,14.67,11,1.08.78v2.89l-16-12-.1.07Q6.87,8.53,2.45,11.87a.5.5,0,0,0-.15.36q0,6.27,0,12.55v.31H4.57v-.36c0-3.78,0-7.57,0-11.35a.42.42,0,0,1,.19-.4l1.91-1.43a1.49,1.49,0,0,1,.2-.12V25.09H9.14V10a.5.5,0,0,1,.23-.46c.52-.37,1-.75,1.52-1.13l.54-.4V25.09h2.28V9.71l.25.17c.6.45,1.19.9,1.8,1.34a.53.53,0,0,1,.25.49q0,6.51,0,13v.35h2.29v-12c.69.52,1.33,1,2,1.49a.61.61,0,0,1,.29.57q0,4.8,0,9.61v.31h2.3V16.56l2.07,1.54a.46.46,0,0,1,.2.42V25.1Z"/></g></g></g></svg>