<svg xmlns="http://www.w3.org/2000/svg" viewBox="0 0 27.31 27.29"><defs><style>.cls-1{fill:#454c73;}</style></defs><title>Asset 2</title><g id="Layer_2" data-name="Layer 2"><g id="Layer_1-2" data-name="Layer 1"><g id="DOFyoP"><path class="cls-1" d="M26.4,27.29H.91a1.35,1.35,0,0,1-.91-.9V10l.1-.24a1.75,1.75,0,0,1,1-1.08L22.43.12,22.76,0V9.09h.32c.67,0,1.35,0,2,0A2.14,2.14,0,0,1,27.24,11a23.91,23.91,0,0,1,0,2.68H20.41a4.55,4.55,0,0,0,.13,9.1h6.77c0,1.07,0,2.1,0,3.13A1.28,1.28,0,0,1,26.4,27.29ZM20.47,3.36,6.26,9l0,0H20.47Z"/><path class="cls-1" d="M27.3,15.94v4.5l-.16,0H20.45a2.26,2.26,0,0,1-.16-4.52c2.31,0,4.62,0,6.93,0Z"/></g></g></g></svg>