<svg xmlns="http://www.w3.org/2000/svg" viewBox="0 0 44.57 44.58"><defs><style>.cls-1{fill:#9da5b0}.cls-2{fill:#c9d3de}.cls-3{fill:#343e4a}</style></defs><g id="Слой_2" data-name="Слой 2"><g id="Слой_1-2" data-name="Слой 1"><g id="sA0agH.tif"><path class="cls-1" d="M3.67 34.44a19.61 19.61 0 0 1-3.34-8.38 21.6 21.6 0 0 1 2.74-15A21.56 21.56 0 0 1 19 .27a21.79 21.79 0 0 1 18.07 5.31 12.7 12.7 0 0 1 1 1c-.05.32-.3.5-.5.71C36 8.84 34.38 10.38 32.85 12a.67.67 0 0 1-1.1 0 13.8 13.8 0 0 0-10.16-3.6 13.55 13.55 0 0 0-7.27 2.41 13.42 13.42 0 0 0-5.82 9.42A13.93 13.93 0 0 0 13 32.77a1.35 1.35 0 0 1 .4.49A3.39 3.39 0 0 1 11 35c-.34 0-.39-.3-.54-.51a1.17 1.17 0 0 0-1.6-.39 1.27 1.27 0 0 0-.54 1.78c.13.25.48.37.4.73-.13.15-.32.21-.45.35a1 1 0 0 1-1.27.3 1.4 1.4 0 0 1-1-1.27 1.6 1.6 0 0 0-.55-1.29c-.61-.64-.82-.7-1.78-.26z"/><path class="cls-1" d="M26.34 36.24c1.38 1.46 2.72 3 4.22 4.31.58.51 1.09 1.1 1.63 1.66a17.32 17.32 0 0 1-6.07 2 22 22 0 0 1-15.77-3.17 20.6 20.6 0 0 1-6.68-6.65c.61-.73.89-.8 1.59-.25s1.17 1 1 1.85c-.11.66.49.84.91 1.08s.65 0 .86-.33a.65.65 0 0 1 .64-.25.62.62 0 0 1 .46-.07 1.33 1.33 0 0 0 1.53-1 1.15 1.15 0 0 1 .28-.56v-.15c1.06-.05 1.56-1 2.38-1.44.28-.14.46.07.65.2a14.08 14.08 0 0 0 11 2.4c.54-.01 1.03-.23 1.37.37z"/><path class="cls-2" d="M9.35 10.94a1.5 1.5 0 0 1-1.46-1.51 1.61 1.61 0 0 1 1.53-1.57A1.68 1.68 0 0 1 11 9.35a1.62 1.62 0 0 1-1.65 1.59zM11 34.92c-.13 1.47-1 2.08-2.31 1.62-1-.8-1.06-1.6-.31-2.37a1.34 1.34 0 0 1 2.36.43 3.05 3.05 0 0 0 .26.32zM4.09 23.74a1.55 1.55 0 0 1-1.54-1.5 1.68 1.68 0 0 1 1.61-1.48 1.61 1.61 0 0 1 1.46 1.45 1.54 1.54 0 0 1-1.53 1.53zM23.76 4a1.54 1.54 0 0 1-1.42 1.55 1.5 1.5 0 0 1-1.49-1.47A1.46 1.46 0 1 1 23.76 4z"/><path class="cls-3" d="M26.35 35.89a1 1 0 0 1-.87-.3 36.68 36.68 0 0 1-3.18-3.42 7.35 7.35 0 0 0-1.79-2.05c-1-.84-.77-1.87-.58-2.89a.77.77 0 0 1 .79-.59 7.94 7.94 0 0 0 1.59-.41.88.88 0 0 1-.68-.87c0-.35-.24-.51-.46-.72s-.64-.45-.15-.82c.37 0 .68.23 1 .28a7 7 0 0 0 1.45 0H35.2a2.46 2.46 0 0 1 1.11.12.19.19 0 0 1 .09.27 27.42 27.42 0 0 1-1.41 4 15.47 15.47 0 0 1-3.37 4.35 18.59 18.59 0 0 1-3.78 2.43c-.48.29-1.06.24-1.49.62z"/><path class="cls-3" d="M21 23.9a.2.2 0 0 0 0 .34c.45.4 1 .69.86 1.49-.05.23.35.27.59.28s.27.08.27.24a.23.23 0 0 1-.27.23c-.64-.06-1.15.46-1.8.35a.55.55 0 0 0-.53.31 3.36 3.36 0 0 0 .24 2.54 13.54 13.54 0 0 1 1.74 1.89.93.93 0 0 1 .17.6 54.16 54.16 0 0 1-4.61-4.48 11.73 11.73 0 0 1-2-2.87c-1.47-3.32.48-7.48 3.48-8.85a6.79 6.79 0 0 1 7.4.74 3.48 3.48 0 0 0 .43.22 10 10 0 0 1 2.12 3.26l-.11.09a3.7 3.7 0 0 1-1.44.12h-5.56l-.24.08a1.9 1.9 0 0 0-.86 2.95c.12.16.21.29.12.47z"/><path d="M35.22 36.7a1.56 1.56 0 0 1-1.57-1.57 1.77 1.77 0 0 1 1.46-1.5 1.88 1.88 0 0 1 1.61 1.43 1.56 1.56 0 0 1-1.5 1.64z" fill="#495560"/><path d="M44.28 18.77A21.19 21.19 0 0 0 38 6.56C36.27 8.3 34.48 10 32.76 11.8c-.42.44-.58.32-.93 0a13.64 13.64 0 0 0-8.48-3.61 13.66 13.66 0 0 0-9.13 2.45A13.87 13.87 0 0 0 11 13.75a13.63 13.63 0 0 0-2.69 10.74 13.56 13.56 0 0 0 5.08 8.84.67.67 0 0 1 .15.06 13.89 13.89 0 0 0 10.94 2.87c.56-.08 1.15-.43 1.74-.09a1 1 0 0 0 .28.48c1.56 1.74 3.25 3.36 4.88 5a1.6 1.6 0 0 0 .82.51A20 20 0 0 0 39 37a21.76 21.76 0 0 0 5.28-18.23zm-2.61 4.83c-.2.18-.4.36-.58.55a.44.44 0 0 1-.18.11c-.54.09-1.1 0-1.65 0-.84.05-1.69-.07-2.53.05h-.33c-.42.22-.44.67-.53 1a13.44 13.44 0 0 1-3.13 6 13.16 13.16 0 0 1-5.91 3.92.9.9 0 0 0-.57.38 7.17 7.17 0 0 1-1.4-1.12c-.88-.86-1.69-1.78-2.5-2.69-.52-.37-.84-.92-1.33-1.31a30.77 30.77 0 0 1-4-4 6.3 6.3 0 0 1-1.65-4.29 6.67 6.67 0 0 1 3.39-6 6.58 6.58 0 0 1 7.27.16c.29.18.52.5.93.36a.24.24 0 0 0 0 .3A11.65 11.65 0 0 1 28.83 20a.74.74 0 0 0 .51.36c1.39 0 2.77.17 4.18.08 2.07-.13 4.16 0 6.24 0a4.06 4.06 0 0 1 1 .13 1.64 1.64 0 0 1 1.48 1.28 1.7 1.7 0 0 1-.57 1.75z" fill="#6b7581"/><path class="cls-2" d="M23.76 40.48a1.51 1.51 0 0 1-1.5 1.52 1.54 1.54 0 0 1 .15-3 1.47 1.47 0 0 1 1.35 1.48z"/><path class="cls-1" d="M42.53 22a1.82 1.82 0 0 0-1.44-1.64 5.77 5.77 0 0 0-1.44-.14H29.12a2 2 0 0 1-.95.07c-2.17.05-4.35-.07-6.52.07-1.59.71-1.84 2.07-.66 3.54.26.13.46.38.8.35.28.25.62.13.93.14H39.5a5.23 5.23 0 0 0 1.25 0H41a.59.59 0 0 0 .28-.15A2.2 2.2 0 0 0 42.53 22z"/></g></g></g></svg>