<svg xmlns="http://www.w3.org/2000/svg" viewBox="0 0 13.91 13.91">
    <defs>
        <style>.cls-1{fill:#2780ff;}.cls-2{fill:#fff;}</style>
    </defs>
    <title>icon-web</title>
    <g id="Layer_2" data-name="Layer 2">
        <g id="Layer_1-2" data-name="Layer 1">
            <path class="cls-1"
                  d="M7,0a7,7,0,1,0,4.12,12.56.25.25,0,0,1-.17-.08L9.77,11.21l-.61.94L8.65,9.59l2.61.81-1.12.48,1.14,1.27a.23.23,0,0,1,.05.21A7,7,0,0,0,7,0Z"/>
            <path class="cls-2"
                  d="M2.6,7.45l.06.35h0l.08-.36.51-1.64h.36l.51,1.64.08.39h0l.08-.39.41-1.64h.44L4.41,8.37H4.05l-.5-1.58-.11-.45h0l-.11.45L2.83,8.37H2.47L1.73,5.81h.44Z"/>
            <path class="cls-2"
                  d="M6.26,7.45l.06.35h0l.08-.36.51-1.64h.36l.51,1.64.09.39h0L8,7.45l.42-1.64h.43L8.07,8.37H7.72L7.21,6.79,7.1,6.34h0L7,6.79l-.5,1.58H6.13L5.39,5.81h.44Z"/>
            <path class="cls-2"
                  d="M9.92,7.45,10,7.8h0l.08-.36.52-1.64h.35l.52,1.64.08.39h0l.08-.39L12,5.81h.43l-.74,2.56h-.35l-.51-1.58-.11-.45h0l-.1.45-.5,1.58H9.79L9.05,5.81h.44Z"/>
        </g>
    </g>
</svg>