<svg xmlns="http://www.w3.org/2000/svg" viewBox="0 0 9.55 7.04"><defs><style>.cls-1{fill:#9da5b0}</style></defs><g id="Слой_2" data-name="Слой 2"><g id="Слой_1-2" data-name="Слой 1"><path class="cls-1" d="M.74 2.77A.73.73 0 0 0 .22 3a.75.75 0 0 0 0 1.06.74.74 0 0 0 1.05 0 .75.75 0 0 0 0-1.06.73.73 0 0 0-.53-.23zM.74 0a.69.69 0 0 0-.52.22.69.69 0 0 0-.22.52.69.69 0 0 0 .22.53.72.72 0 0 0 1.05 0 .69.69 0 0 0 .22-.53.67.67 0 0 0-.22-.52A.69.69 0 0 0 .74 0zM.74 5.55a.72.72 0 0 0-.52.21.75.75 0 0 0 0 1.06.74.74 0 0 0 1.05 0 .75.75 0 0 0 0-1.06.72.72 0 0 0-.53-.21zM2.18.35h7.37v.8H2.18zM2.18 3.12h7.37v.8H2.18zM2.18 5.89h7.37v.8H2.18z"/></g></g></svg>