<svg xmlns="http://www.w3.org/2000/svg" viewBox="0 0 10.65 7.3"><g data-name="Слой 2"><path d="M9.52 0a1.13 1.13 0 0 0-1.13 1.13 1.16 1.16 0 0 0 .34.87L7.46 4a1.1 1.1 0 0 0-.37-.06 1.18 1.18 0 0 0-.67.21l-1.5-1a.62.62 0 0 0 0-.13 1.14 1.14 0 1 0-2.27 0 1.11 1.11 0 0 0 .23.67L1.59 5.13A1.19 1.19 0 0 0 1.13 5a1.14 1.14 0 1 0 1.14 1.17 1.16 1.16 0 0 0-.2-.64L3.38 4a1.16 1.16 0 0 0 .42.08 1.13 1.13 0 0 0 .88-.42L6 4.55A1.07 1.07 0 0 0 6 5a1.14 1.14 0 1 0 2.22 0A1.12 1.12 0 0 0 8 4.27l1.31-2h.24A1.14 1.14 0 0 0 9.52 0z" fill="#9da5b0" data-name="Слой 1"/></g></svg>