<svg xmlns="http://www.w3.org/2000/svg" viewBox="0 0 10.75 7.51"><defs><style>.cls-1{fill:#9da5b0}</style></defs><g id="Слой_2" data-name="Слой 2"><g id="Слой_1-2" data-name="Слой 1"><path class="cls-1" d="M6.82 3.3a.46.46 0 1 0 .46.46.46.46 0 0 0-.46-.46z"/><path class="cls-1" d="M9.62 1.92h-.07V.35A.35.35 0 0 0 9.2 0H.35A.35.35 0 0 0 0 .35v6.81a.35.35 0 0 0 .35.35H9.2a.35.35 0 0 0 .35-.35V5.6h.07a1.21 1.21 0 0 0 1.13-1.2V3.12a1.21 1.21 0 0 0-1.13-1.2zm-.77 4.89H.7V.7h8.15v1.21h-2a1.86 1.86 0 0 0-1.31.55A1.83 1.83 0 0 0 5 3.78 1.86 1.86 0 0 0 6.86 5.6h2zM10 4.39a.5.5 0 0 1-.5.5H6.88a1.14 1.14 0 0 1-1.15-1.1 1.13 1.13 0 0 1 1.13-1.17h2.68a.5.5 0 0 1 .5.5z"/></g></g></svg>