<svg xmlns="http://www.w3.org/2000/svg" viewBox="0 0 18.63 18.63"><defs><style>.cls-1{fill:#454c73;}</style></defs><title>Asset 14</title><g id="Layer_2" data-name="Layer 2"><g id="Layer_1-2" data-name="Layer 1"><g id="sbfcp5"><path class="cls-1" d="M18.63,1.56H7.77A6.1,6.1,0,0,1,5.94,5.94,6.14,6.14,0,0,1,1.57,7.77v3.1a6.11,6.11,0,0,1,4.37,1.82,6.16,6.16,0,0,1,1.83,4.37l.17,0H18.63v1.56H1.7a2.17,2.17,0,0,1-.36,0A1.55,1.55,0,0,1,0,17V1.51a1.55,1.55,0,0,1,.4-1A1.82,1.82,0,0,1,1.31,0H18.63ZM1.57,6.2A4.62,4.62,0,0,0,6.19,1.57H1.57ZM6.21,17.07a4.61,4.61,0,0,0-4.64-4.62v4.62Z"/><path class="cls-1" d="M18.63,11.14c0,.12-.05.24-.09.36a2.32,2.32,0,0,1-2,1.68l-.24,0v1.52H14.75V13.21a2.38,2.38,0,0,1-1.87-1,2.21,2.21,0,0,1-.45-1.37H14a.78.78,0,0,0,.61.74.82.82,0,0,0,.22,0h1.45a.79.79,0,0,0,.83-.79.78.78,0,0,0-.82-.77H14.7a2.33,2.33,0,0,1-.21-4.64l.25,0V3.9H16.3V5.41a5,5,0,0,1,.58.1A2.31,2.31,0,0,1,18.6,7.36l0,.1v.29H17.1C17,7.25,16.73,7,16.32,7h-1.6a.76.76,0,0,0-.71.55.78.78,0,0,0,.77,1h1.58a2.25,2.25,0,0,1,1.79.9,2.51,2.51,0,0,1,.48,1.14Z"/><path class="cls-1" d="M6.22,10.08V8.55h4.64v1.53Z"/><path class="cls-1" d="M7.78,7H9.3v4.63H7.78Z"/></g></g></g></svg>