<svg xmlns="http://www.w3.org/2000/svg" viewBox="0 0 28.46 26.06"><defs><style>.cls-1{fill:#454c73;}</style></defs><title>Asset 9</title><g id="Layer_2" data-name="Layer 2"><g id="Layer_1-2" data-name="Layer 1"><g id="_6Sik4C" data-name="6Sik4C"><path class="cls-1" d="M0,20.37v-.45c.56-1.34,1.11-2.69,1.67-4a.48.48,0,0,0,0-.5A9.37,9.37,0,0,1,.16,11.76c-.06-.32-.11-.64-.16-.95V9.36c0-.23.08-.47.11-.71A9.74,9.74,0,0,1,3.94,2.26,10.72,10.72,0,0,1,11.2,0a10.52,10.52,0,0,1,6.71,2.67,9.48,9.48,0,0,1,3.24,9.26,9.42,9.42,0,0,1-2.73,5,10.74,10.74,0,0,1-6.64,3.1,10.79,10.79,0,0,1-5.15-.71.62.62,0,0,0-.53,0L1.8,21.18a2.18,2.18,0,0,1-.48.14C.71,21.38.32,21.1,0,20.37Z"/><path class="cls-1" d="M23,6a10.34,10.34,0,0,1,3.61,3.13,9.46,9.46,0,0,1,1.72,7.15,9.24,9.24,0,0,1-1.48,3.8.5.5,0,0,0-.05.55q.78,1.85,1.53,3.69a1.17,1.17,0,0,1-1,1.71,1.64,1.64,0,0,1-.69-.14l-4.34-1.79a.73.73,0,0,0-.46,0,11.14,11.14,0,0,1-4.74.75,10.94,10.94,0,0,1-6-2.26L11,22.52l1-.08a12.91,12.91,0,0,0,9.77-5.88A11.44,11.44,0,0,0,23.7,9.62a12.25,12.25,0,0,0-.58-3.24Z"/></g></g></g></svg>