<svg xmlns="http://www.w3.org/2000/svg" viewBox="0 0 33.9 35.65"><defs><style>.cls-1{opacity:0.9;isolation:isolate;}.cls-2{fill:#454c73;}</style></defs><title>Asset 1</title><g id="Layer_2" data-name="Layer 2"><g id="Layer_1-2" data-name="Layer 1"><g class="cls-1"><path class="cls-2" d="M33,16.71,17.2.93a3.19,3.19,0,0,0-4.5,0L4.06,9.57a3.24,3.24,0,0,0,0,4.54l1.43,1.47H8.8L5.71,12.46a.93.93,0,0,1-.25-.62.91.91,0,0,1,.25-.61l1.14-1.11,5.42,5.46h5.21l-8-8.06,4.9-4.92a.88.88,0,0,1,.6-.25.86.86,0,0,1,.6.24L31.33,18.36a.86.86,0,0,1,.24.6.88.88,0,0,1-.27.6l-.89.87v3.31L33,21.21a3.19,3.19,0,0,0,0-4.5Z"/><path class="cls-2" d="M25.57,17.06H3.26A3.24,3.24,0,0,0,0,20.23v8.45H28.72V20.23a3.15,3.15,0,0,0-3.15-3.17ZM7.8,25.8a2.33,2.33,0,0,1-1.61-.64,2.31,2.31,0,0,1-3.91-1.67,2.31,2.31,0,0,1,3.91-1.67,2.34,2.34,0,0,1,1.61-.65,2.32,2.32,0,0,1,0,4.63Z"/><path class="cls-2" d="M0,32.45a3.26,3.26,0,0,0,3.26,3.2H25.57a3.17,3.17,0,0,0,3.15-3.2v-.18H0Z"/></g></g></g></svg>