<svg xmlns="http://www.w3.org/2000/svg" viewBox="0 0 26.53 26.54"><defs><style>.cls-1{fill:#454c73;}</style></defs><title>Asset 7</title><g id="Layer_2" data-name="Layer 2"><g id="Layer_1-2" data-name="Layer 1"><g id="MNfHgR"><path class="cls-1" d="M26.53,14.05c-.07.51-.11,1-.21,1.53A13.08,13.08,0,0,1,19.49,25a12.77,12.77,0,0,1-7.38,1.5,13.08,13.08,0,0,1-6.51-2.4l.17-.19c1.48-1.48,3-3,4.45-4.46a.34.34,0,0,1,.44-.08,6.55,6.55,0,0,0,8.4-2.89,6.4,6.4,0,0,0,.35-5.64c-.19-.5-.24-.33.15-.71C21,8.67,22.41,7.25,23.84,5.82A2.26,2.26,0,0,0,24,5.54a13.22,13.22,0,0,1,2.24,5.16c.1.56.15,1.13.22,1.7,0,.06,0,.13,0,.19Z"/><path class="cls-1" d="M14,0c.52.07,1,.12,1.56.21a13.22,13.22,0,0,1,7,3.6s0,0,0,0L17.91,8.53a6.67,6.67,0,0,0-4.65-1.9V0Z"/><path class="cls-1" d="M2.47,5.59,4.53,7.66c.86.86,1.72,1.73,2.58,2.58a.3.3,0,0,1,.08.4,6.51,6.51,0,0,0,.89,6.76,3,3,0,0,0,.23.27l.23.25L3.86,22.59A13.17,13.17,0,0,1,2.47,5.59Z"/><path class="cls-1" d="M3.92,3.85A13.19,13.19,0,0,1,11,.21a2,2,0,0,1,0,.23c0,2.11,0,4.22,0,6.32a.32.32,0,0,1-.23.36,6.36,6.36,0,0,0-2.2,1.42Z"/></g></g></g></svg>