<svg xmlns="http://www.w3.org/2000/svg" viewBox="0 0 27.27 27.22"><defs><style>.cls-1{fill:#454c73;}</style></defs><title>Asset 12</title><g id="Layer_2" data-name="Layer 2"><g id="Layer_1-2" data-name="Layer 1"><g id="AaGNRd"><path class="cls-1" d="M0,18a5.66,5.66,0,0,1,.55-.8c1.1-1.12,2.22-2.23,3.33-3.34l.17-.16,1.61,1.62L3.9,17h.33c1.42,0,2.85,0,4.27,0a5.12,5.12,0,0,1,.74,10.18H0V25H1.52c2.34,0,4.69,0,7,0a2.83,2.83,0,0,0,2.75-3.47A2.87,2.87,0,0,0,8.41,19.3c-1.42,0-2.85,0-4.27,0l-.28,0,1.77,1.75L4,22.69a2,2,0,0,0-.16-.2C2.79,21.42,1.72,20.37.67,19.3A9.56,9.56,0,0,1,0,18.43Z"/><path class="cls-1" d="M27.27,25H15.94V22.72h9V2.27H9.11V14.73H6.84V0H27.27Z"/><path class="cls-1" d="M11.38,6.78V4.53H22.73V6.78Z"/><path class="cls-1" d="M22.73,11.33H11.38V9.08H22.73Z"/><path class="cls-1" d="M22.73,13.64v2.23H13.66V13.64Z"/><path class="cls-1" d="M15.94,18.18h6.79v2.25H15.94Z"/></g></g></g></svg>