<svg xmlns="http://www.w3.org/2000/svg" viewBox="0 0 27.65 27.64"><defs><style>.cls-1{fill:#454c73;}</style></defs><title>Asset 4</title><g id="Layer_2" data-name="Layer 2"><g id="Layer_1-2" data-name="Layer 1"><g id="Jkr47v"><path class="cls-1" d="M19.6,0V2.29H17.29V4.66a11.78,11.78,0,0,1,3.56,1l1.19-2,2,1.15L22.85,6.78a11.41,11.41,0,0,1,4.62,7.42,11.15,11.15,0,0,1-1.25,7.46A11.49,11.49,0,0,1,4.87,18.42H7.09c.06,0,.15.13.18.21a8.47,8.47,0,0,0,1.53,3A8.81,8.81,0,0,0,18,25.11a8.75,8.75,0,0,0,7.07-6.94A9.16,9.16,0,0,0,18,7.09a9,9,0,0,0-6,.84l-.38.2a.62.62,0,0,1,0-.16c0-.73,0-1.46,0-2.19a.25.25,0,0,1,.18-.28,11.26,11.26,0,0,1,3-.8c.21,0,.28-.08.27-.29,0-.69,0-1.38,0-2.1H12.69V0Z"/><path class="cls-1" d="M5.78,0V2.29A3.46,3.46,0,0,1,8.67,3.9a3.05,3.05,0,0,1,.51,1.85H6.94A1.23,1.23,0,0,0,5.48,4.6h-2a1.13,1.13,0,0,0-1.11.78,1.07,1.07,0,0,0,.37,1.25,1.54,1.54,0,0,0,.77.26c.73,0,1.46,0,2.18,0A3.46,3.46,0,0,1,6,13.82H5.76v2.28H3.45V13.83a3.57,3.57,0,0,1-2.07-.71A3.38,3.38,0,0,1,.05,11a.66.66,0,0,0,0-.15v-.44H2.28c.19.88.54,1.15,1.41,1.15H5.63a2,2,0,0,0,.43,0,1.15,1.15,0,0,0,.84-1.23,1.13,1.13,0,0,0-1.1-1H3.51A3.47,3.47,0,0,1,.08,6.49c0-.1,0-.19-.08-.28V5.34a1.09,1.09,0,0,0,.05-.17A3.4,3.4,0,0,1,2.64,2.41a4.9,4.9,0,0,1,.81-.13V0Z"/><path class="cls-1" d="M17.27,15H23v2.3h-.28c-2.16,0-4.31,0-6.47,0A1.16,1.16,0,0,1,15,16V9.49c0-.08,0-.16,0-.25h2.29Z"/><path class="cls-1" d="M16.14,20.73a1.14,1.14,0,0,1,1.13,1.16A1.16,1.16,0,0,1,16.12,23,1.18,1.18,0,0,1,15,21.88,1.15,1.15,0,0,1,16.14,20.73Z"/><path class="cls-1" d="M11.51,16.13A1.15,1.15,0,1,1,10.38,15,1.15,1.15,0,0,1,11.51,16.13Z"/></g></g></g></svg>