<svg xmlns="http://www.w3.org/2000/svg" viewBox="0 0 87.83 101">
    <defs>
        <style>.cls-1{fill:#fff;}</style>
    </defs>
    <title>Asset 4</title>
    <g id="Layer_2" data-name="Layer 2">
        <g id="Layer_1-2" data-name="Layer 1">
            <path class="cls-1"
                  d="M19.76,0H6.59A6.6,6.6,0,0,0,0,6.59v8.78A6.6,6.6,0,0,0,6.59,22H19.76a6.6,6.6,0,0,0,6.59-6.59V6.59A6.6,6.6,0,0,0,19.76,0Z"/>
            <path class="cls-1"
                  d="M50.5,0H37.33a6.6,6.6,0,0,0-6.59,6.59v8.78A6.6,6.6,0,0,0,37.33,22H50.5a6.6,6.6,0,0,0,6.59-6.59V6.59A6.6,6.6,0,0,0,50.5,0Z"/>
            <path class="cls-1"
                  d="M81.24,0H68.07a6.6,6.6,0,0,0-6.59,6.59v8.78A6.6,6.6,0,0,0,68.07,22H81.24a6.6,6.6,0,0,0,6.59-6.59V6.59A6.6,6.6,0,0,0,81.24,0Z"/>
            <path class="cls-1"
                  d="M19.76,26.35H6.59A6.59,6.59,0,0,0,0,32.93v8.79A6.59,6.59,0,0,0,6.59,48.3H19.76a6.59,6.59,0,0,0,6.59-6.58V32.93A6.59,6.59,0,0,0,19.76,26.35Z"/>
            <path class="cls-1"
                  d="M50.5,26.35H37.33a6.59,6.59,0,0,0-6.59,6.58v8.79a6.59,6.59,0,0,0,6.59,6.58H50.5a6.59,6.59,0,0,0,6.59-6.58V32.93A6.59,6.59,0,0,0,50.5,26.35Z"/>
            <path class="cls-1"
                  d="M81.24,26.35H68.07a6.59,6.59,0,0,0-6.59,6.58v8.79a6.59,6.59,0,0,0,6.59,6.58H81.24a6.59,6.59,0,0,0,6.59-6.58V32.93A6.59,6.59,0,0,0,81.24,26.35Z"/>
            <path class="cls-1"
                  d="M19.76,52.7H6.59A6.59,6.59,0,0,0,0,59.28v8.79a6.59,6.59,0,0,0,6.59,6.58H19.76a6.59,6.59,0,0,0,6.59-6.58V59.28A6.59,6.59,0,0,0,19.76,52.7Z"/>
            <path class="cls-1"
                  d="M50.5,52.7H37.33a6.59,6.59,0,0,0-6.59,6.58v8.79a6.59,6.59,0,0,0,6.59,6.58H50.5a6.59,6.59,0,0,0,6.59-6.58V59.28A6.59,6.59,0,0,0,50.5,52.7Z"/>
            <path class="cls-1"
                  d="M81.24,52.7H68.07a6.59,6.59,0,0,0-6.59,6.58v8.79a6.59,6.59,0,0,0,6.59,6.58H81.24a6.59,6.59,0,0,0,6.59-6.58V59.28A6.59,6.59,0,0,0,81.24,52.7Z"/>
            <path class="cls-1"
                  d="M50.5,79H37.33a6.6,6.6,0,0,0-6.59,6.59v8.78A6.6,6.6,0,0,0,37.33,101H50.5a6.6,6.6,0,0,0,6.59-6.59V85.63A6.6,6.6,0,0,0,50.5,79Z"/>
        </g>
    </g>
</svg>