<svg xmlns="http://www.w3.org/2000/svg" viewBox="0 0 113.99 117.21">
    <defs>
        <style>.cls-1{fill:#fff;}</style>
    </defs>
    <title>Asset 2</title>
    <g id="Layer_2" data-name="Layer 2">
        <g id="Layer_1-2" data-name="Layer 1">
            <path class="cls-1"
                  d="M50.05,39.45a35.24,35.24,0,0,1,6.28-17.07,28.5,28.5,0,1,0-33.77,34A42.69,42.69,0,0,1,50.05,39.45Zm-33-4.16a1.81,1.81,0,0,1,1.84-1.84h5.85V32.08L24,30.71h-5a1.84,1.84,0,1,1,0-3.68h2.88L15.59,16.82a4.2,4.2,0,0,1-.66-1.94c0-2.6,2.41-3.43,4.05-3.43a3.56,3.56,0,0,1,3.2,2.2l6.33,12,6.3-12a3.59,3.59,0,0,1,3.2-2.2c1.65,0,4.06.83,4.06,3.43a4.2,4.2,0,0,1-.66,1.94L35.19,27h2.87a1.84,1.84,0,0,1,0,3.68H33l-.8,1.37v1.37h5.84a1.84,1.84,0,1,1,0,3.67H32.22v4.67a3.47,3.47,0,0,1-3.71,3.76,3.47,3.47,0,0,1-3.73-3.76V37.12H18.93a1.81,1.81,0,0,1-1.84-1.83Z"/>
            <path class="cls-1"
                  d="M85.5,14.25A28.51,28.51,0,0,0,57.3,38.84a42.66,42.66,0,0,1,15.4,3,2,2,0,0,1,2-1.19h1a8.81,8.81,0,0,1-1.41-5c0-5.83,5.18-9.94,11.83-9.94,8.25,0,12.25,4.43,12.25,8.1,0,2.13-1.47,3.3-3.54,3.3-4.14,0-1.6-5.75-8-5.75-2.77,0-5.42,1.66-5.42,4.71A10.38,10.38,0,0,0,83,40.67h5.14c1.92,0,2.92.72,2.92,2.26s-1,2.27-2.92,2.27H84.39a2.89,2.89,0,0,1,.23,1.13,6.21,6.21,0,0,1-.47,2.25,43.37,43.37,0,0,1,4.31,4.16,18.83,18.83,0,0,0,3.85.57c.8,0,2.74-.52,3.48-.52a2.72,2.72,0,0,1,2.74,3c0,2.67-2.39,3.82-4.83,4a42.84,42.84,0,0,1,4,8.7A28.47,28.47,0,0,0,85.5,14.25Z"/>
            <path class="cls-1" d="M58.89,85V96.63c3.52-.23,7.24-1.88,7.24-5.77S62.06,85.68,58.89,85Z"/>
            <path class="cls-1" d="M48.75,71c0,3,2.18,4.65,6.6,5.54V66c-4,.12-6.6,2.47-6.6,5Z"/>
            <path class="cls-1"
                  d="M57,46A35.63,35.63,0,1,0,92.62,81.58,35.68,35.68,0,0,0,57,46Zm1.89,56.7v3.65a1.78,1.78,0,1,1-3.54,0v-3.65c-10-.24-14.9-6.19-14.9-10.84A3.39,3.39,0,0,1,44.1,88.1c6.59,0,1.46,8.13,11.25,8.54V84.33c-8.73-1.59-14-5.42-14-12,0-8,6.65-12.15,14-12.38V56.86a1.78,1.78,0,1,1,3.54,0V60c4.58.13,14,3,14,8.78a3.54,3.54,0,0,1-3.72,3.64c-3.82,0-3.77-6.29-10.29-6.41V77.2c7.78,1.65,14.65,3.94,14.65,13,0,7.9-5.89,11.9-14.65,12.43Z"/>
        </g>
    </g>
</svg>