<svg xmlns="http://www.w3.org/2000/svg" viewBox="0 0 107.21 107">
    <defs>
        <style>.cls-1{fill:#fff;}</style>
    </defs>
    <title>Asset 3</title>
    <g id="Layer_2" data-name="Layer 2">
        <g id="Layer_1-2" data-name="Layer 1">
            <path class="cls-1" d="M0,88.3H40.14V48.16H0ZM8,56.19H32.11v24H8Z"/>
            <rect class="cls-1" x="16.06" y="64.22" width="8.02" height="8.03"/>
            <path class="cls-1" d="M0,40.14H40.14V0H0ZM8,8H32.11V32.11H8Z"/>
            <rect class="cls-1" x="16.06" y="16.06" width="8.02" height="8.02"/>
            <path class="cls-1" d="M48.16,0V40.14H88.3V0ZM80.27,32.11H56.19V8H80.27Z"/>
            <rect class="cls-1" x="64.22" y="16.06" width="8.03" height="8.02"/>
            <path class="cls-1"
                  d="M105.57,97.48,94.18,86.09A24.87,24.87,0,1,0,86.31,94l11.38,11.38a5.57,5.57,0,1,0,7.88-7.87ZM85.94,85.75a18.18,18.18,0,1,1,0-25.72,18.2,18.2,0,0,1,0,25.72Z"/>
        </g>
    </g>
</svg>