<svg xmlns="http://www.w3.org/2000/svg" viewBox="0 0 116.5 116.5">
    <defs>
        <style>.cls-1{fill:#fff;}.cls-2{fill:#606060;}</style>
    </defs>
    <title>Asset 4</title>
    <g id="Layer_2" data-name="Layer 2">
        <g id="Layer_1-2" data-name="Layer 1">
            <path class="cls-1"
                  d="M40.92,91.34l-17.38,9.48a16.11,16.11,0,0,0-2.79,2,58.21,58.21,0,0,0,74.79.2,15.29,15.29,0,0,0-3.06-2L73.87,91.64a7.09,7.09,0,0,1-3.93-6.35V78a25,25,0,0,0,1.76-2.27,42.69,42.69,0,0,0,5.78-11.65,5.84,5.84,0,0,0,4.16-5.56v-7.8a5.78,5.78,0,0,0-2-4.32V35.12S82,17.59,58.25,17.59,36.82,35.12,36.82,35.12V46.39a5.81,5.81,0,0,0-2,4.32v7.8a5.87,5.87,0,0,0,2.7,4.9,38.68,38.68,0,0,0,7,14.58v7.13a7.12,7.12,0,0,1-3.7,6.22Z"/>
            <path class="cls-2"
                  d="M59.25,0A58.21,58.21,0,0,0,20.77,102.78a16.48,16.48,0,0,1,2.75-2l17.4-9.48a7.1,7.1,0,0,0,3.69-6.23V78a38.67,38.67,0,0,1-7-14.59,5.79,5.79,0,0,1-2.7-4.89V50.7a5.83,5.83,0,0,1,1.94-4.31V35.12s-2.3-17.54,21.44-17.54S79.68,35.12,79.68,35.12V46.39a5.8,5.8,0,0,1,1.95,4.31v7.81a5.85,5.85,0,0,1-4.15,5.56A43,43,0,0,1,71.7,75.72c-.65.91-1.23,1.67-1.76,2.27v7.3a7.08,7.08,0,0,0,3.92,6.35L92.48,101a15.18,15.18,0,0,1,3,2A58.24,58.24,0,0,0,59.25,0Z"/>
        </g>
    </g>
</svg>